<?xml version="1.0" encoding="UTF-8"?>
<svg xmlns="http://www.w3.org/2000/svg" xmlns:xlink="http://www.w3.org/1999/xlink" viewBox="0 0 512 512">
  <defs>
    <style>
      .cls-1 {
        fill: url(#linear-gradient-2);
      }

      .cls-2 {
        fill: url(#linear-gradient-4);
      }

      .cls-3 {
        fill: url(#linear-gradient-5);
      }

      .cls-4 {
        isolation: isolate;
      }

      .cls-5 {
        fill: #052533;
      }

      .cls-6 {
        fill: url(#linear-gradient-7);
      }

      .cls-7 {
        fill: url(#linear-gradient-3);
        mix-blend-mode: multiply;
        opacity: .7;
      }

      .cls-8 {
        fill: url(#linear-gradient-6);
      }

      .cls-9 {
        fill: url(#linear-gradient);
      }
    </style>
    <linearGradient id="linear-gradient" x1="285.4" y1="703.75" x2="213.17" y2="434.18" gradientTransform="translate(637.77 -154.1) rotate(-157.25) scale(1 -1)" gradientUnits="userSpaceOnUse">
      <stop offset="0" stop-color="#5fbd3f"/>
      <stop offset="1" stop-color="#e4e61d"/>
    </linearGradient>
    <linearGradient id="linear-gradient-2" x1="434.42" y1="283.5" x2="159.76" y2="614.93" gradientTransform="translate(637.77 -154.1) rotate(-157.25) scale(1 -1)" gradientUnits="userSpaceOnUse">
      <stop offset="0" stop-color="#fff"/>
      <stop offset="1" stop-color="#fff" stop-opacity="0"/>
    </linearGradient>
    <linearGradient id="linear-gradient-3" x1="298.75" y1="437.55" x2="122.76" y2="679.54" gradientTransform="translate(637.77 -154.1) rotate(-157.25) scale(1 -1)" gradientUnits="userSpaceOnUse">
      <stop offset="0" stop-color="#066e00"/>
      <stop offset="1" stop-color="#e4e61d" stop-opacity="0"/>
    </linearGradient>
    <linearGradient id="linear-gradient-4" x1="68.23" y1="377.43" x2="74.48" y2="321.2" gradientTransform="translate(524.14 -110.67) rotate(-157.25) scale(1 -1.19)" gradientUnits="userSpaceOnUse">
      <stop offset="0" stop-color="#f86f4b"/>
      <stop offset="1" stop-color="#f32776"/>
    </linearGradient>
    <linearGradient id="linear-gradient-5" x1="77.8" y1="-77" x2="61.28" y2="-21.02" gradientTransform="translate(360.82 280.36) rotate(-157.25) scale(1 1.19)" xlink:href="#linear-gradient-4"/>
    <linearGradient id="linear-gradient-6" x1="-43.31" y1="380.22" x2="-39.88" y2="349.37" gradientTransform="translate(524.14 -110.67) rotate(-157.25) scale(1 -1.19)" gradientUnits="userSpaceOnUse">
      <stop offset="0" stop-color="#00bef5"/>
      <stop offset="1" stop-color="#007dc6"/>
    </linearGradient>
    <linearGradient id="linear-gradient-7" x1="-37.6" y1="-54.48" x2="-46.77" y2="-23.38" gradientTransform="translate(360.82 280.36) rotate(-157.25) scale(1 1.19)" xlink:href="#linear-gradient-6"/>
  </defs>
  <g class="cls-4">
    <g id="Layer_2" data-name="Layer 2">
      <g id="OBJECTS">
        <rect class="cls-5" width="512" height="512" rx="98.33" ry="98.33"/>
        <g>
          <path class="cls-9" d="M80.06,316.1c24.52,60.01,81.6,96.85,142.42,98.58,11.39.36,22.9-.55,34.37-2.76l-2.82-6.88-14.95-36.56-.62-1.51c-4.97-12.15-15.88-20.6-28.75-23.14-2.61-.52-5.18-1.15-7.72-1.9-25.26-7.33-47.1-25.74-57.86-52.05-18.71-45.75,3.19-97.97,48.96-116.71,29.68-12.12,62.07-7.17,86.26,10.27,10.55,7.6,24.33,9.06,36.36,4.15l.98-.4,36.49-14.95,6.83-2.77c-3.75-5.82-7.84-11.32-12.25-16.47-43.26-50.8-115.8-70.52-180.87-43.88-81.16,33.17-120.03,125.84-86.82,206.98Z"/>
          <path class="cls-1" d="M80.06,316.1c24.52,60.01,81.6,96.85,142.42,98.58,11.39.36,22.9-.55,34.37-2.76l-2.82-6.88c-23.51,4.32-47.21,2.87-69.32-3.59-42.81-12.43-79.72-43.56-97.93-88.09-31.69-77.48,5.38-165.86,82.85-197.52,68.04-27.83,144.51-2.64,183.55,56.41l6.83-2.77c-3.75-5.82-7.84-11.32-12.25-16.47-43.26-50.8-115.8-70.52-180.87-43.88-81.16,33.17-120.03,125.84-86.82,206.98Z"/>
          <path class="cls-7" d="M119.85,292.32c15.87,46.56,58.41,75.45,103.91,76.72,5.07.18,10.2-.03,15.33-.56l-.62-1.51c-4.97-12.15-15.88-20.6-28.75-23.14-2.61-.52-5.18-1.15-7.72-1.9-25.26-7.33-47.1-25.74-57.86-52.05-18.71-45.75,3.19-97.97,48.96-116.71,29.68-12.12,62.07-7.17,86.26,10.27,10.55,7.6,24.33,9.06,36.36,4.15l.98-.4c-1.18-1.57-2.39-3.09-3.65-4.56-32.41-38.03-87.77-51.62-135.86-28.16-50.74,24.75-75.54,84.41-57.33,137.85Z"/>
          <g>
            <path class="cls-2" d="M204.4,248.43l99.74,41.84,84.14-39.93-42.35-17.76c-36.52-15.32-77.83-14.37-113.61,2.61l-27.91,13.25Z"/>
            <path class="cls-3" d="M204.4,248.43l99.74,41.84,30.47,88.01-42.35-17.76c-36.52-15.32-64.79-45.46-77.75-82.88l-10.11-29.2Z"/>
          </g>
          <g>
            <path class="cls-8" d="M344.42,307.16l53.91,22.61,45.48-21.59-27.48-11.53c-16.82-7.05-35.84-6.62-52.32,1.2l-19.59,9.3Z"/>
            <path class="cls-6" d="M344.42,307.16l53.91,22.61,16.47,47.57-27.48-11.53c-16.82-7.05-29.84-20.93-35.8-38.17l-7.09-20.49Z"/>
          </g>
        </g>
      </g>
    </g>
  </g>
</svg>